# Blender 4.1.1
# www.blender.org
mtllib cutesub.mtl
o sub
v 0.707107 0.707107 -1.124040
v 0.258819 0.965926 -1.124040
v 0.965926 0.258819 -1.124042
v 0.965926 -0.258819 -1.124042
v 0.707107 -0.707107 -1.124040
v 0.258819 -0.965926 -1.124042
v -0.258819 -0.965926 -1.124042
v -0.707107 -0.707107 -1.124040
v -0.965926 -0.258819 -1.124043
v -0.965926 0.258819 -1.124040
v -0.707107 0.707107 -1.124040
v -0.258819 0.965926 -1.124042
v 0.707107 0.707107 1.104383
v 0.258819 0.965926 1.104383
v 0.965926 0.258819 1.104384
v 0.965926 -0.258819 1.104384
v 0.707107 -0.707107 1.104383
v 0.258819 -0.965926 1.104384
v -0.258819 -0.965926 1.104384
v -0.707107 -0.707107 1.104383
v -0.965926 -0.258819 1.104385
v -0.965926 0.258819 1.104383
v -0.707107 0.707107 1.104383
v -0.258819 0.965926 1.104384
v 0.207517 0.774465 1.629487
v 0.136899 0.510913 1.987045
v 0.074069 0.247503 2.142107
v 0.201374 0.201374 2.130926
v 0.374014 0.374014 1.987045
v 0.566948 0.566948 1.629487
v 0.246794 0.074778 2.142107
v 0.510913 0.136899 1.987045
v 0.774465 0.207517 1.629487
v 0.246794 -0.074778 2.142107
v 0.510913 -0.136899 1.987045
v 0.774466 -0.207517 1.629487
v 0.201374 -0.201374 2.130926
v 0.374014 -0.374014 1.987045
v 0.566948 -0.566948 1.629487
v 0.074069 -0.247503 2.142107
v 0.136899 -0.510913 1.987045
v 0.207517 -0.774466 1.629487
v -0.074069 -0.247503 2.142107
v -0.136899 -0.510913 1.987045
v -0.207517 -0.774466 1.629487
v -0.201374 -0.201374 2.130926
v -0.374014 -0.374014 1.987045
v -0.566948 -0.566948 1.629487
v -0.246794 -0.074778 2.142107
v -0.510913 -0.136899 1.987045
v -0.774465 -0.207517 1.629487
v -0.246794 0.074778 2.142107
v -0.510913 0.136899 1.987045
v -0.774466 0.207517 1.629487
v -0.201374 0.201374 2.130926
v -0.374014 0.374014 1.987045
v -0.566948 0.566948 1.629487
v -0.074069 0.247503 2.142107
v -0.136899 0.510913 1.987045
v -0.207517 0.774465 1.629487
v -0.080964 0.083801 2.186411
v 0.080964 0.083801 2.186411
v -0.080964 -0.083801 2.186411
v 0.080964 -0.083801 2.186411
v 0.207517 0.774466 -2.069546
v 0.136899 0.510913 -2.713368
v 0.074069 0.247503 -2.992574
v 0.201374 0.201374 -2.972442
v 0.374014 0.374014 -2.713369
v 0.566948 0.566948 -2.069546
v 0.246794 0.074778 -2.992574
v 0.510913 0.136899 -2.713369
v 0.774465 0.207517 -2.069546
v 0.246794 -0.074778 -2.992574
v 0.510913 -0.136899 -2.713369
v 0.774466 -0.207517 -2.069546
v 0.201374 -0.201374 -2.972442
v 0.374014 -0.374014 -2.713369
v 0.566948 -0.566948 -2.069546
v 0.074069 -0.247503 -2.992574
v 0.136899 -0.510913 -2.713369
v 0.207517 -0.774465 -2.069546
v -0.074069 -0.247503 -2.992574
v -0.136899 -0.510913 -2.713369
v -0.207517 -0.774465 -2.069546
v -0.201374 -0.201374 -2.972442
v -0.374014 -0.374014 -2.713369
v -0.566948 -0.566948 -2.069546
v -0.246794 -0.074778 -2.992574
v -0.510913 -0.136899 -2.713369
v -0.774465 -0.207517 -2.069547
v -0.246794 0.074778 -2.992574
v -0.510913 0.136899 -2.713369
v -0.774466 0.207518 -2.069546
v -0.201374 0.201374 -2.972442
v -0.374014 0.374014 -2.713369
v -0.566948 0.566948 -2.069546
v -0.074069 0.247503 -2.992574
v -0.136899 0.510913 -2.713368
v -0.207517 0.774466 -2.069546
v -0.080964 0.083801 -3.072349
v 0.080964 0.083801 -3.072349
v -0.080964 -0.083801 -3.072349
v 0.080964 -0.083801 -3.072349
v 0.037887 1.084402 -2.303175
v 0.045294 1.084402 -2.713368
v 1.084402 0.045294 -2.713369
v 1.084402 0.037887 -2.303175
v 1.084402 -0.045294 -2.713369
v 1.084402 -0.037887 -2.303175
v 0.045294 -1.084402 -2.713369
v 0.037887 -1.084402 -2.303175
v -0.045294 -1.084402 -2.713369
v -0.037887 -1.084402 -2.303175
v -1.084402 -0.045294 -2.713369
v -1.084402 -0.037887 -2.303175
v -1.084402 0.045295 -2.713369
v -1.084402 0.037888 -2.303175
v -0.045294 1.084402 -2.713368
v -0.037887 1.084402 -2.303175
v -0.258819 0.965926 -0.164247
v 0.258819 0.965926 -0.164247
v 0.707107 0.707107 -0.164247
v 0.965926 0.258819 -0.164247
v 0.965926 -0.258819 -0.164247
v 0.707107 -0.707107 -0.164247
v 0.258819 -0.965926 -0.164247
v -0.258819 -0.965926 -0.164247
v -0.707107 -0.707107 -0.164247
v -0.965926 -0.258819 -0.164248
v -0.965926 0.258819 -0.164247
v -0.707107 0.707107 -0.164247
v 0.157706 1.455161 1.104383
v -0.157706 1.455161 1.104384
v -0.144797 1.455161 -0.164247
v 0.144797 1.455161 -0.164247
v -0.258819 0.965926 0.470069
v 0.258819 0.965926 0.470068
v 0.707107 0.707107 0.470068
v 0.965926 0.258819 0.470069
v 0.965926 -0.258819 0.470069
v 0.707107 -0.707107 0.470068
v 0.258819 -0.965926 0.470069
v -0.258819 -0.965926 0.470069
v -0.707107 -0.707107 0.470068
v -0.965926 -0.258819 0.470069
v -0.965926 0.258819 0.470068
v -0.707107 0.707107 0.470068
v -0.258819 1.455161 0.470069
v 0.258819 1.455161 0.470068
vn -0.7151 0.0854 0.6938
vn -0.9958 0.0910 -0.0041
vn -1.0000 -0.0000 -0.0000
vn 0.3410 0.9106 0.2334
vn 0.7071 0.7071 -0.0000
vn 0.5000 0.8660 -0.0000
vn 0.6963 0.6963 0.1745
vn 0.9659 0.2588 -0.0000
vn 0.9511 0.2548 0.1745
vn 0.9659 -0.2588 -0.0000
vn 0.6963 -0.6963 0.1745
vn 0.7071 -0.7071 -0.0000
vn 0.2588 -0.9659 -0.0000
vn 0.2548 -0.9511 0.1745
vn -0.2588 -0.9659 -0.0000
vn -0.6963 -0.6963 0.1745
vn -0.7071 -0.7071 -0.0000
vn -0.9659 -0.2588 -0.0000
vn -0.9511 0.2548 0.1745
vn -0.9659 0.2588 -0.0000
vn -0.7071 0.7071 -0.0000
vn 0.2575 0.9609 -0.1014
vn 0.6757 0.6757 -0.2946
vn 0.4490 0.8882 -0.0976
vn 0.6222 0.6222 0.4751
vn 0.2277 0.8499 0.4751
vn 0.8499 -0.2277 0.4751
vn 0.8499 0.2277 0.4751
vn 0.6222 -0.6222 0.4751
vn 0.9511 -0.2548 0.1745
vn -0.2277 -0.8499 0.4751
vn 0.2277 -0.8499 0.4751
vn -0.6222 -0.6222 0.4751
vn -0.2548 -0.9511 0.1745
vn -0.9511 -0.2548 0.1745
vn -0.8499 0.2277 0.4751
vn -0.8499 -0.2277 0.4751
vn -0.6222 0.6222 0.4751
vn -0.3409 0.9106 0.2334
vn -0.6963 0.6963 0.1745
vn -0.2277 0.8499 0.4751
vn 0.1738 0.6552 0.7352
vn -0.1738 0.6552 0.7352
vn -0.3067 0.3062 0.9012
vn -0.4814 0.4814 0.7325
vn -0.6550 0.1736 0.7354
vn -0.3847 0.0979 0.9178
vn -0.6550 -0.1736 0.7354
vn -0.3847 -0.0979 0.9178
vn -0.3067 -0.3062 0.9012
vn -0.4814 -0.4814 0.7325
vn -0.1738 -0.6552 0.7352
vn -0.0986 -0.3861 0.9172
vn 0.1738 -0.6552 0.7352
vn 0.0986 -0.3861 0.9172
vn 0.3067 -0.3062 0.9012
vn 0.4814 -0.4814 0.7325
vn 0.6550 -0.1736 0.7354
vn 0.3847 -0.0979 0.9178
vn 0.6550 0.1736 0.7354
vn 0.3847 0.0979 0.9178
vn 0.3067 0.3062 0.9012
vn 0.4814 0.4814 0.7325
vn 0.0986 0.3861 0.9172
vn -0.0986 0.3861 0.9172
vn -0.1216 0.1231 0.9849
vn -0.1216 -0.1231 0.9849
vn 0.1216 0.1231 0.9849
vn 0.1216 -0.1231 0.9849
vn 0.9609 0.2575 -0.1014
vn 0.8882 0.4490 -0.0976
vn 0.8882 -0.4490 -0.0976
vn 0.9609 -0.2575 -0.1014
vn 0.6757 -0.6757 -0.2946
vn 0.2575 -0.9609 -0.1014
vn 0.4490 -0.8882 -0.0976
vn -0.2575 -0.9609 -0.1014
vn -0.4490 -0.8882 -0.0976
vn -0.6757 -0.6757 -0.2946
vn -0.9609 -0.2575 -0.1014
vn -0.8882 -0.4490 -0.0976
vn -0.8882 0.4490 -0.0976
vn -0.9609 0.2575 -0.1014
vn -0.6757 0.6757 -0.2946
vn -0.2575 0.9609 -0.1014
vn -0.4490 0.8882 -0.0976
vn -0.2442 0.9636 -0.1088
vn -0.8054 0.5012 0.3166
vn -0.4585 0.4577 -0.7618
vn -0.2953 0.7537 -0.5871
vn -0.1502 0.5842 -0.7976
vn -0.5980 0.5980 -0.5336
vn -0.7535 0.2951 -0.5875
vn -0.5824 0.1491 -0.7991
vn -0.5824 -0.1491 -0.7991
vn -0.5012 0.8054 0.3166
vn -0.4585 -0.4577 -0.7618
vn -0.7535 -0.2950 -0.5875
vn -0.5980 -0.5980 -0.5336
vn -0.2953 -0.7537 -0.5871
vn -0.1502 -0.5842 -0.7976
vn 0.2953 -0.7537 -0.5871
vn 0.1502 -0.5842 -0.7976
vn 0.9636 -0.2442 -0.1088
vn 0.5012 -0.8054 0.3166
vn 0.6532 -0.7571 0.0118
vn 0.4585 -0.4577 -0.7618
vn 0.5980 -0.5980 -0.5336
vn 0.7535 -0.2951 -0.5875
vn 0.5824 -0.1491 -0.7991
vn 0.5824 0.1491 -0.7991
vn -0.0000 -0.0000 -1.0000
vn 0.4585 0.4577 -0.7618
vn 0.7535 0.2950 -0.5875
vn 0.5980 0.5980 -0.5336
vn 0.2953 0.7537 -0.5871
vn 0.1502 0.5842 -0.7976
vn -0.2036 0.2059 -0.9572
vn -0.2036 -0.2059 -0.9572
vn 0.2036 0.2059 -0.9572
vn 0.2036 -0.2059 -0.9572
vn -0.5000 0.8660 -0.0000
vn 0.6532 0.7571 0.0118
vn -0.6532 0.7571 0.0118
vn -0.8054 -0.5012 0.3166
vn -0.7571 0.6532 0.0118
vn -0.7571 -0.6532 0.0118
vn -0.6532 -0.7571 0.0118
vn 0.8054 0.5012 0.3166
vn 0.7571 -0.6532 0.0118
vn 0.7571 0.6532 0.0118
vn 0.2442 0.9636 -0.1088
vn -0.9636 -0.2442 -0.1088
vn -0.5012 -0.8054 0.3166
vn 0.2442 -0.9636 -0.1088
vn 0.8054 -0.5012 0.3166
vn 0.9636 0.2442 -0.1088
vn 0.5012 0.8054 0.3166
vn -0.9636 0.2442 -0.1088
vn -0.2442 -0.9636 -0.1088
vn -0.7035 0.7035 -0.1014
vn -0.3437 0.9391 -0.0000
vn -0.7035 -0.7035 -0.1014
vn 0.7035 -0.7035 -0.1014
vn 0.7035 0.7035 -0.1014
vn 0.3437 0.9391 -0.0000
vn -0.0000 1.0000 -0.0000
vn 0.7152 0.0962 -0.6922
vn 0.9958 0.0910 -0.0041
vn 1.0000 -0.0000 -0.0000
vn -0.7152 0.0962 -0.6922
vn 0.5745 0.1339 -0.8075
vn 0.7150 0.0854 0.6938
vn -0.5904 0.1220 0.7978
vn 0.5905 0.1220 0.7978
vn -0.5745 0.1339 -0.8075
vt 0.083333 1.000000
vt 0.083333 1.000000
vt 0.083333 1.000000
vt 1.000000 1.000000
vt 0.916667 1.000000
vt 0.916667 1.000000
vt 0.833333 1.000000
vt 0.750000 1.000000
vt 0.666667 1.000000
vt 0.666667 1.000000
vt 0.583333 1.000000
vt 0.583333 1.000000
vt 0.500000 1.000000
vt 0.416667 1.000000
vt 0.416667 1.000000
vt 0.333333 1.000000
vt 0.250000 1.000000
vt 0.166667 1.000000
vt 0.250000 0.490000
vt 0.364536 0.448381
vt 0.250000 0.479071
vt 0.457846 0.370000
vt 0.370000 0.457846
vt 0.479071 0.250000
vt 0.448381 0.364536
vt 0.448381 0.135464
vt 0.490000 0.250000
vt 0.370000 0.042154
vt 0.457846 0.130000
vt 0.250000 0.020929
vt 0.364536 0.051619
vt 0.135464 0.051619
vt 0.250000 0.010000
vt 0.042154 0.130000
vt 0.130000 0.042154
vt 0.020929 0.250000
vt 0.051619 0.135464
vt 0.051619 0.364536
vt 0.010000 0.250000
vt 0.130000 0.457846
vt 0.042154 0.370000
vt 0.135464 0.448381
vt 0.250000 0.457213
vt 0.146393 0.429452
vt 0.089477 0.342678
vt 0.070548 0.353607
vt 0.042787 0.250000
vt 0.064644 0.250000
vt 0.070548 0.146393
vt 0.089477 0.157322
vt 0.157322 0.089477
vt 0.146393 0.070548
vt 0.250000 0.042787
vt 0.250000 0.064644
vt 0.353607 0.070548
vt 0.342678 0.089477
vt 0.410523 0.157322
vt 0.429452 0.146393
vt 0.457213 0.250000
vt 0.435356 0.250000
vt 0.429452 0.353607
vt 0.410523 0.342678
vt 0.342678 0.410523
vt 0.353607 0.429452
vt 0.250000 0.435356
vt 0.157322 0.410523
vt 0.184076 0.288061
vt 0.211939 0.184076
vt 0.288061 0.315924
vt 0.315924 0.211939
vt 0.166667 1.000000
vt 0.083333 1.000000
vt 0.333333 1.000000
vt 0.750000 1.000000
vt 0.000000 1.000000
vt 0.416667 1.000000
vt 0.916667 1.000000
s 1
f 24/1/1 149/2/2 137/3/3
f 14/4/4 139/5/5 138/4/6
f 13/6/7 140/7/8 139/5/5
f 15/7/9 141/8/10 140/7/8
f 141/8/10 17/9/11 142/10/12
f 17/9/11 143/11/13 142/10/12
f 18/12/14 144/13/15 143/11/13
f 144/13/15 20/14/16 145/15/17
f 20/14/16 146/16/18 145/15/17
f 146/16/18 22/17/19 147/17/20
f 22/17/19 148/18/21 147/17/20
f 2/19/22 70/20/23 65/21/24
f 30/20/25 14/19/4 25/21/26
f 30/20/25 15/22/9 13/23/7
f 36/24/27 15/22/9 33/25/28
f 39/26/29 16/27/30 36/24/27
f 39/26/29 18/28/14 17/29/11
f 45/30/31 18/28/14 42/31/32
f 48/32/33 19/33/34 45/30/31
f 48/32/33 21/34/35 20/35/16
f 54/36/36 21/34/35 51/37/37
f 57/38/38 22/39/19 54/36/36
f 57/38/38 24/40/39 23/41/40
f 25/21/26 24/40/39 60/42/41
f 26/43/42 60/42/41 59/44/43
f 55/45/44 59/44/43 56/46/45
f 59/44/43 57/38/38 56/46/45
f 55/45/44 53/47/46 52/48/47
f 56/46/45 54/36/36 53/47/46
f 52/48/47 50/49/48 49/50/49
f 53/47/46 51/37/37 50/49/48
f 46/51/50 50/49/48 47/52/51
f 47/52/51 51/37/37 48/32/33
f 46/51/50 44/53/52 43/54/53
f 47/52/51 45/30/31 44/53/52
f 43/54/53 41/55/54 40/56/55
f 44/53/52 42/31/32 41/55/54
f 37/57/56 41/55/54 38/58/57
f 38/58/57 42/31/32 39/26/29
f 37/57/56 35/59/58 34/60/59
f 38/58/57 36/24/27 35/59/58
f 34/60/59 32/61/60 31/62/61
f 35/59/58 33/25/28 32/61/60
f 28/63/62 32/61/60 29/64/63
f 32/61/60 30/20/25 29/64/63
f 28/63/62 26/43/42 27/65/64
f 29/64/63 25/21/26 26/43/42
f 27/65/64 59/44/43 58/66/65
f 55/45/44 61/67/66 58/66/65
f 52/48/47 63/68/67 61/67/66
f 46/51/50 63/68/67 49/50/49
f 61/67/66 27/65/64 58/66/65
f 63/68/67 62/69/68 61/67/66
f 63/68/67 40/56/55 64/70/69
f 62/69/68 28/63/62 27/65/64
f 64/70/69 31/62/61 62/69/68
f 64/70/69 37/57/56 34/60/59
f 70/20/23 3/22/70 73/25/71
f 3/22/70 76/24/72 73/25/71
f 4/27/73 79/26/74 76/24/72
f 79/26/74 6/28/75 82/31/76
f 82/31/76 7/33/77 85/30/78
f 7/33/77 88/32/79 85/30/78
f 88/32/79 9/34/80 91/37/81
f 9/34/80 94/36/82 91/37/81
f 10/39/83 97/38/84 94/36/82
f 97/38/84 12/40/85 100/42/86
f 12/40/85 65/21/24 100/42/86
f 93/47/87 118/36/88 94/36/82
f 95/45/89 99/44/90 98/66/91
f 97/38/84 99/44/90 96/46/92
f 93/47/93 95/45/89 92/48/94
f 94/36/82 96/46/92 93/47/93
f 89/50/95 93/47/93 92/48/94
f 65/21/24 120/42/96 100/42/86
f 86/51/97 90/49/98 89/50/95
f 87/52/99 91/37/81 90/49/98
f 84/53/100 86/51/97 83/54/101
f 85/30/78 87/52/99 84/53/100
f 81/55/102 83/54/101 80/56/103
f 81/55/104 112/31/105 111/55/106
f 77/57/107 81/55/102 80/56/103
f 79/26/74 81/55/102 78/58/108
f 75/59/109 77/57/107 74/60/110
f 76/24/72 78/58/108 75/59/109
f 71/62/111 75/59/109 74/60/110
f 99/44/112 106/43/112 66/43/112
f 68/63/113 72/61/114 71/62/111
f 69/64/115 73/25/71 72/61/114
f 66/43/116 68/63/113 67/65/117
f 66/43/116 70/20/23 69/64/115
f 99/44/90 67/65/117 98/66/91
f 95/45/89 101/67/118 92/48/94
f 101/67/118 89/50/95 92/48/94
f 103/68/119 86/51/97 89/50/95
f 98/66/91 102/69/120 101/67/118
f 102/69/120 103/68/119 101/67/118
f 104/70/121 83/54/101 103/68/119
f 68/63/113 102/69/120 67/65/117
f 102/69/120 74/60/110 104/70/121
f 104/70/121 77/57/107 80/56/103
f 23/71/40 137/3/122 148/18/21
f 120/42/96 106/43/123 119/44/124
f 116/37/125 117/47/126 115/49/127
f 112/31/105 113/53/128 111/55/106
f 108/25/129 109/59/130 107/61/131
f 90/49/112 117/47/112 93/47/112
f 72/61/132 108/25/129 107/61/131
f 91/37/81 118/36/88 116/37/125
f 84/53/133 114/30/134 85/30/78
f 84/53/112 111/55/112 113/53/112
f 82/31/76 114/30/134 112/31/105
f 75/59/135 110/24/136 76/24/72
f 66/43/137 105/21/138 65/21/24
f 72/61/112 109/59/112 75/59/112
f 99/44/139 120/42/96 119/44/124
f 76/24/72 108/25/129 73/25/71
f 90/49/140 116/37/125 115/49/127
f 11/71/141 121/72/142 12/1/85
f 10/17/83 132/71/21 11/71/141
f 130/73/18 10/17/83 9/16/80
f 8/14/143 130/73/18 9/16/80
f 128/13/15 8/14/143 7/13/77
f 127/12/13 7/13/77 6/12/75
f 5/9/144 127/12/13 6/12/75
f 125/8/10 5/9/144 4/74/73
f 124/7/8 4/74/73 3/7/70
f 1/6/145 124/7/8 3/7/70
f 122/4/146 1/6/145 2/4/22
f 121/72/142 2/75/22 12/1/85
f 149/2/147 133/75/147 150/75/147
f 122/4/148 150/4/149 138/4/150
f 121/72/151 136/75/152 122/75/148
f 14/19/153 134/40/154 24/40/1
f 14/4/153 150/4/149 133/4/155
f 149/2/147 136/75/147 135/72/147
f 132/71/21 137/3/122 121/72/142
f 147/17/20 132/71/21 131/17/20
f 146/16/18 131/17/20 130/73/18
f 129/76/17 146/16/18 130/73/18
f 144/13/15 129/76/17 128/13/15
f 143/11/13 128/13/15 127/12/13
f 126/9/12 143/11/13 127/12/13
f 141/8/10 126/9/12 125/8/10
f 140/7/8 125/8/10 124/7/8
f 123/77/5 140/7/8 124/7/8
f 138/4/6 123/77/5 122/4/146
f 121/72/151 149/2/2 135/72/156
f 24/1/1 134/1/154 149/2/2
f 14/4/4 13/6/7 139/5/5
f 13/6/7 15/7/9 140/7/8
f 15/7/9 16/74/30 141/8/10
f 141/8/10 16/74/30 17/9/11
f 17/9/11 18/12/14 143/11/13
f 18/12/14 19/13/34 144/13/15
f 144/13/15 19/13/34 20/14/16
f 20/14/16 21/16/35 146/16/18
f 146/16/18 21/16/35 22/17/19
f 22/17/19 23/71/40 148/18/21
f 2/19/22 1/23/145 70/20/23
f 30/20/25 13/23/7 14/19/4
f 30/20/25 33/25/28 15/22/9
f 36/24/27 16/27/30 15/22/9
f 39/26/29 17/29/11 16/27/30
f 39/26/29 42/31/32 18/28/14
f 45/30/31 19/33/34 18/28/14
f 48/32/33 20/35/16 19/33/34
f 48/32/33 51/37/37 21/34/35
f 54/36/36 22/39/19 21/34/35
f 57/38/38 23/41/40 22/39/19
f 57/38/38 60/42/41 24/40/39
f 25/21/26 14/19/4 24/40/39
f 26/43/42 25/21/26 60/42/41
f 55/45/44 58/66/65 59/44/43
f 59/44/43 60/42/41 57/38/38
f 55/45/44 56/46/45 53/47/46
f 56/46/45 57/38/38 54/36/36
f 52/48/47 53/47/46 50/49/48
f 53/47/46 54/36/36 51/37/37
f 46/51/50 49/50/49 50/49/48
f 47/52/51 50/49/48 51/37/37
f 46/51/50 47/52/51 44/53/52
f 47/52/51 48/32/33 45/30/31
f 43/54/53 44/53/52 41/55/54
f 44/53/52 45/30/31 42/31/32
f 37/57/56 40/56/55 41/55/54
f 38/58/57 41/55/54 42/31/32
f 37/57/56 38/58/57 35/59/58
f 38/58/57 39/26/29 36/24/27
f 34/60/59 35/59/58 32/61/60
f 35/59/58 36/24/27 33/25/28
f 28/63/62 31/62/61 32/61/60
f 32/61/60 33/25/28 30/20/25
f 28/63/62 29/64/63 26/43/42
f 29/64/63 30/20/25 25/21/26
f 27/65/64 26/43/42 59/44/43
f 55/45/44 52/48/47 61/67/66
f 52/48/47 49/50/49 63/68/67
f 46/51/50 43/54/53 63/68/67
f 61/67/66 62/69/68 27/65/64
f 63/68/67 64/70/69 62/69/68
f 63/68/67 43/54/53 40/56/55
f 62/69/68 31/62/61 28/63/62
f 64/70/69 34/60/59 31/62/61
f 64/70/69 40/56/55 37/57/56
f 70/20/23 1/23/145 3/22/70
f 3/22/70 4/27/73 76/24/72
f 4/27/73 5/29/144 79/26/74
f 79/26/74 5/29/144 6/28/75
f 82/31/76 6/28/75 7/33/77
f 7/33/77 8/35/143 88/32/79
f 88/32/79 8/35/143 9/34/80
f 9/34/80 10/39/83 94/36/82
f 10/39/83 11/41/141 97/38/84
f 97/38/84 11/41/141 12/40/85
f 12/40/85 2/19/22 65/21/24
f 93/47/87 117/47/126 118/36/88
f 95/45/89 96/46/92 99/44/90
f 97/38/84 100/42/86 99/44/90
f 93/47/93 96/46/92 95/45/89
f 94/36/82 97/38/84 96/46/92
f 89/50/95 90/49/98 93/47/93
f 65/21/24 105/21/138 120/42/96
f 86/51/97 87/52/99 90/49/98
f 87/52/99 88/32/79 91/37/81
f 84/53/100 87/52/99 86/51/97
f 85/30/78 88/32/79 87/52/99
f 81/55/102 84/53/100 83/54/101
f 81/55/104 82/31/76 112/31/105
f 77/57/107 78/58/108 81/55/102
f 79/26/74 82/31/76 81/55/102
f 75/59/109 78/58/108 77/57/107
f 76/24/72 79/26/74 78/58/108
f 71/62/111 72/61/114 75/59/109
f 99/44/112 119/44/112 106/43/112
f 68/63/113 69/64/115 72/61/114
f 69/64/115 70/20/23 73/25/71
f 66/43/116 69/64/115 68/63/113
f 66/43/116 65/21/24 70/20/23
f 99/44/90 66/43/116 67/65/117
f 95/45/89 98/66/91 101/67/118
f 101/67/118 103/68/119 89/50/95
f 103/68/119 83/54/101 86/51/97
f 98/66/91 67/65/117 102/69/120
f 102/69/120 104/70/121 103/68/119
f 104/70/121 80/56/103 83/54/101
f 68/63/113 71/62/111 102/69/120
f 102/69/120 71/62/111 74/60/110
f 104/70/121 74/60/110 77/57/107
f 23/71/40 24/1/39 137/3/122
f 120/42/96 105/21/138 106/43/123
f 116/37/125 118/36/88 117/47/126
f 112/31/105 114/30/134 113/53/128
f 108/25/129 110/24/136 109/59/130
f 90/49/112 115/49/112 117/47/112
f 72/61/132 73/25/71 108/25/129
f 91/37/81 94/36/82 118/36/88
f 84/53/133 113/53/128 114/30/134
f 84/53/112 81/55/112 111/55/112
f 82/31/76 85/30/78 114/30/134
f 75/59/135 109/59/130 110/24/136
f 66/43/137 106/43/123 105/21/138
f 72/61/112 107/61/112 109/59/112
f 99/44/139 100/42/86 120/42/96
f 76/24/72 110/24/136 108/25/129
f 90/49/140 91/37/81 116/37/125
f 11/71/141 132/71/21 121/72/142
f 10/17/83 131/17/20 132/71/21
f 130/73/18 131/17/20 10/17/83
f 8/14/143 129/76/17 130/73/18
f 128/13/15 129/76/17 8/14/143
f 127/12/13 128/13/15 7/13/77
f 5/9/144 126/9/12 127/12/13
f 125/8/10 126/9/12 5/9/144
f 124/7/8 125/8/10 4/74/73
f 1/6/145 123/77/5 124/7/8
f 122/4/146 123/77/5 1/6/145
f 121/72/142 122/75/146 2/75/22
f 149/2/147 134/1/147 133/75/147
f 122/4/148 136/4/152 150/4/149
f 121/72/151 135/72/156 136/75/152
f 14/19/153 133/19/155 134/40/154
f 14/4/153 138/4/150 150/4/149
f 149/2/147 150/75/147 136/75/147
f 132/71/21 148/18/21 137/3/122
f 147/17/20 148/18/21 132/71/21
f 146/16/18 147/17/20 131/17/20
f 129/76/17 145/15/17 146/16/18
f 144/13/15 145/15/17 129/76/17
f 143/11/13 144/13/15 128/13/15
f 126/9/12 142/10/12 143/11/13
f 141/8/10 142/10/12 126/9/12
f 140/7/8 141/8/10 125/8/10
f 123/77/5 139/5/5 140/7/8
f 138/4/6 139/5/5 123/77/5
f 121/72/151 137/3/3 149/2/2
