# Blender 4.1.1
# www.blender.org
mtllib gizmoid.mtl
o gizmesh
v 0.000000 0.000000 -1.189631
v 0.000000 0.196943 1.110659
v 0.377740 -0.000000 1.110659
v 0.000000 -0.209676 1.110659
v -0.377740 -0.000000 1.110659
v 0.000000 -0.177173 1.633372
v 0.000000 -0.053120 -0.818280
v 0.060981 -0.000000 -0.818280
v 0.000000 0.060981 -0.818280
v -0.060981 -0.000000 -0.818280
v 0.000000 0.919194 -1.248799
v 1.266052 -0.035468 -0.819347
v 1.205071 -0.053120 -0.819347
v -1.205071 -0.053120 -0.819347
v -1.266052 -0.035468 -0.819347
vn -0.4846 -0.8730 0.0543
vn 0.5055 0.8598 -0.0718
vn -0.6530 -0.7497 -0.1072
vn -0.3903 0.7487 0.5358
vn 0.4846 -0.8730 0.0543
vn 0.3903 0.7487 0.5358
vn 0.4091 0.4091 0.8156
vn 0.6530 -0.7497 -0.1072
vn 0.9867 -0.0104 -0.1620
vn -0.4091 0.4091 0.8156
vn -0.9867 -0.0104 -0.1620
vn 0.4492 -0.8668 0.2164
vn 0.0294 0.9996 -0.0048
vn -0.0009 0.0015 -1.0000
vn -0.5055 0.8598 -0.0718
vn -0.4492 -0.8668 0.2164
vn 0.0001 -0.9967 -0.0809
vn 0.0009 0.0015 -1.0000
vn -0.0001 -0.9967 -0.0809
vn -0.0294 0.9996 -0.0048
vt 0.728883 0.250597
vt 0.671262 0.198582
vt 0.782852 0.079193
vt 0.916445 0.777826
vt 0.815116 0.247917
vt 0.896254 0.218592
vt 0.930619 0.776082
vt 0.267997 0.758243
vt 0.160930 0.758243
vt 0.161650 0.744898
vt 0.930619 0.148988
vt 0.159697 0.785704
vt 0.161650 0.771587
vt 0.303704 0.906855
vt 0.159697 0.730782
vt 0.303704 0.609630
vt 0.235889 0.269573
vt 0.139549 0.148848
vt 0.156725 0.122316
vt 0.237710 0.268946
vt 0.313721 0.285850
vt 0.319010 0.282655
vt 0.902617 0.781436
vt 0.183047 0.104822
vt 0.304926 0.199698
vt 0.304320 0.201527
vt 0.322140 0.277328
s 0
usemtl gizmoid
f 5/1/1 4/2/1 6/3/1
f 9/4/2 2/5/2 3/6/2 8/7/2
f 1/8/3 7/9/3 10/10/3
f 2/5/4 5/1/4 6/3/4
f 4/11/5 3/6/5 6/3/5
f 3/6/6 2/5/6 6/3/6
f 9/12/7 8/13/7 11/14/7
f 1/8/8 8/13/8 7/9/8
f 8/13/9 1/8/9 11/14/9
f 10/10/10 9/15/10 11/16/10
f 1/8/11 10/10/11 11/16/11
f 12/17/12 3/18/12 4/19/12 13/20/12
f 3/18/13 12/17/13 8/21/13
f 8/21/14 12/17/14 13/20/14 7/22/14
f 10/23/15 5/1/15 2/5/15 9/4/15
f 5/24/16 15/25/16 14/26/16 4/19/16
f 4/19/17 14/26/17 7/22/17
f 7/22/18 14/26/18 15/25/18 10/27/18
f 7/22/19 13/20/19 4/19/19
f 10/27/20 15/25/20 5/24/20
